<svg xmlns="http://www.w3.org/2000/svg" xmlns:xlink="http://www.w3.org/1999/xlink" width="198" height="297" contentStyleType="text/css" preserveAspectRatio="none" style="width:198px;height:297px;background:#fff" version="1.1" viewBox="0 0 198 297" zoomAndPan="magnify"><g><g id="elem_a"><rect id="a" width="14" height="26.297" x="81.5" y="7" fill="#F1F1F1" codeLine="4" rx="2.5" ry="2.5" style="stroke:#181818;stroke-width:.5"/><text x="84.5" y="24.995" fill="#000" font-family="sans-serif" font-size="14" lengthAdjust="spacing" textLength="8">a</text></g><g id="elem_b"><rect id="b" width="15" height="26.297" x="56" y="93" fill="#F1F1F1" rx="2.5" ry="2.5" style="stroke:#181818;stroke-width:.5"/><text x="59" y="110.995" fill="#000" font-family="sans-serif" font-size="14" lengthAdjust="spacing" textLength="9">b</text></g><g id="elem_c"><rect id="c" width="14" height="26.297" x="106.5" y="93" fill="#F1F1F1" rx="2.5" ry="2.5" style="stroke:#181818;stroke-width:.5"/><text x="109.5" y="110.995" fill="#000" font-family="sans-serif" font-size="14" lengthAdjust="spacing" textLength="8">c</text></g><g id="elem_d"><rect id="d" width="15" height="26.297" x="7" y="179" fill="#F1F1F1" rx="2.5" ry="2.5" style="stroke:#181818;stroke-width:.5"/><text x="10" y="196.995" fill="#000" font-family="sans-serif" font-size="14" lengthAdjust="spacing" textLength="9">d</text></g><g id="elem_e"><rect id="e" width="15" height="26.297" x="57" y="179" fill="#F1F1F1" rx="2.5" ry="2.5" style="stroke:#181818;stroke-width:.5"/><text x="60" y="196.995" fill="#000" font-family="sans-serif" font-size="14" lengthAdjust="spacing" textLength="9">e</text></g><g id="elem_h"><rect id="h" width="15" height="26.297" x="35" y="265" fill="#F1F1F1" rx="2.5" ry="2.5" style="stroke:#181818;stroke-width:.5"/><text x="38" y="282.995" fill="#000" font-family="sans-serif" font-size="14" lengthAdjust="spacing" textLength="9">h</text></g><g id="elem_i"><rect id="i" width="9" height="26.297" x="85" y="265" fill="#F1F1F1" rx="2.5" ry="2.5" style="stroke:#181818;stroke-width:.5"/><text x="88" y="282.995" fill="#000" font-family="sans-serif" font-size="14" lengthAdjust="spacing" textLength="3">i</text></g><g id="elem_f"><rect id="f" width="10" height="26.297" x="108.5" y="179" fill="#F1F1F1" rx="2.5" ry="2.5" style="stroke:#181818;stroke-width:.5"/><text x="111.5" y="196.995" fill="#000" font-family="sans-serif" font-size="14" lengthAdjust="spacing" textLength="4">f</text></g><g id="elem_g"><rect id="g" width="15" height="26.297" x="154" y="179" fill="#F1F1F1" rx="2.5" ry="2.5" style="stroke:#181818;stroke-width:.5"/><text x="157" y="196.995" fill="#000" font-family="sans-serif" font-size="14" lengthAdjust="spacing" textLength="9">g</text></g><g id="elem_j"><rect id="j" width="9" height="26.297" x="131" y="265" fill="#F1F1F1" rx="2.5" ry="2.5" style="stroke:#181818;stroke-width:.5"/><text x="134" y="282.995" fill="#000" font-family="sans-serif" font-size="14" lengthAdjust="spacing" textLength="3">j</text></g><g id="elem_k"><rect id="k" width="14" height="26.297" x="175.5" y="265" fill="#F1F1F1" rx="2.5" ry="2.5" style="stroke:#181818;stroke-width:.5"/><text x="178.5" y="282.995" fill="#000" font-family="sans-serif" font-size="14" lengthAdjust="spacing" textLength="8">k</text></g><g id="link_a_b"><path id="a-to-b" fill="none" d="M84.92,33.04 C80.65,47.38 73.48,71.46 68.63,87.78" codeLine="6" style="stroke:#181818;stroke-width:1"/><polygon fill="#181818" points="67.08 92.99 73.461 85.487 68.493 88.194 65.787 83.226 67.08 92.99" style="stroke:#181818;stroke-width:1"/></g><g id="link_a_c"><path id="a-to-c" fill="none" d="M92.08,33.04 C96.35,47.38 103.52,71.46 108.37,87.78" codeLine="7" style="stroke:#181818;stroke-width:1"/><polygon fill="#181818" points="109.92 92.99 111.213 83.226 108.507 88.194 103.539 85.487 109.92 92.99" style="stroke:#181818;stroke-width:1"/></g><g id="link_b_d"><path id="b-to-d" fill="none" d="M56.48,119.04 C47.97,133.63 33.57,158.3 24.05,174.62" codeLine="8" style="stroke:#181818;stroke-width:1"/><polygon fill="#181818" points="21.51 178.99 29.498 173.228 24.028 174.67 22.586 169.2 21.51 178.99" style="stroke:#181818;stroke-width:1"/></g><g id="link_b_e"><path id="b-to-e" fill="none" d="M63.64,119.04 C63.81,133.38 64.1,157.46 64.29,173.78" codeLine="9" style="stroke:#181818;stroke-width:1"/><polygon fill="#181818" points="64.36 178.99 68.257 169.945 64.303 173.99 60.257 170.036 64.36 178.99" style="stroke:#181818;stroke-width:1"/></g><g id="link_e_h"><path id="e-to-h" fill="none" d="M61.35,205.04 C57.59,219.38 51.28,243.46 47.01,259.78" codeLine="10" style="stroke:#181818;stroke-width:1"/><polygon fill="#181818" points="45.65 264.99 51.783 257.284 46.906 260.15 44.04 255.274 45.65 264.99" style="stroke:#181818;stroke-width:1"/></g><g id="link_e_i"><path id="e-to-i" fill="none" d="M68.08,205.04 C72.35,219.38 79.52,243.46 84.37,259.78" codeLine="11" style="stroke:#181818;stroke-width:1"/><polygon fill="#181818" points="85.92 264.99 87.213 255.226 84.507 260.194 79.539 257.488 85.92 264.99" style="stroke:#181818;stroke-width:1"/></g><g id="link_c_f"><path id="c-to-f" fill="none" d="M113.5,119.04 C113.5,133.38 113.5,157.46 113.5,173.78" codeLine="12" style="stroke:#181818;stroke-width:1"/><polygon fill="#181818" points="113.5 178.99 117.5 169.99 113.5 173.99 109.5 169.99 113.5 178.99" style="stroke:#181818;stroke-width:1"/></g><g id="link_c_g"><path id="c-to-g" fill="none" d="M120.38,119.04 C128.72,133.63 142.82,158.3 152.14,174.62" codeLine="13" style="stroke:#181818;stroke-width:1"/><polygon fill="#181818" points="154.64 178.99 153.651 169.191 152.161 174.648 146.704 173.157 154.64 178.99" style="stroke:#181818;stroke-width:1"/></g><g id="link_g_j"><path id="g-to-j" fill="none" d="M157.77,205.04 C153.3,219.51 145.75,243.88 140.7,260.2" codeLine="14" style="stroke:#181818;stroke-width:1"/><polygon fill="#181818" points="139.22 264.99 145.708 257.581 140.702 260.215 138.068 255.209 139.22 264.99" style="stroke:#181818;stroke-width:1"/></g><g id="link_g_k"><path id="g-to-k" fill="none" d="M164.51,205.04 C168.1,219.38 174.12,243.46 178.19,259.78" codeLine="15" style="stroke:#181818;stroke-width:1"/><polygon fill="#181818" points="179.5 264.99 181.191 255.287 178.284 260.14 173.431 257.233 179.5 264.99" style="stroke:#181818;stroke-width:1"/></g></g></svg>