<svg xmlns="http://www.w3.org/2000/svg" xmlns:xlink="http://www.w3.org/1999/xlink" width="179" height="211" contentStyleType="text/css" preserveAspectRatio="none" style="width:179px;height:211px;background:#fff" version="1.1" viewBox="0 0 179 211" zoomAndPan="magnify"><g><g id="elem_1"><rect id="1" width="15" height="26.297" x="82" y="7" fill="#F1F1F1" codeLine="4" rx="2.5" ry="2.5" style="stroke:#181818;stroke-width:.5"/><text x="85" y="24.995" fill="#000" font-family="sans-serif" font-size="14" lengthAdjust="spacing" textLength="9">1</text></g><g id="elem_2"><rect id="2" width="15" height="26.297" x="57" y="93" fill="#F1F1F1" rx="2.5" ry="2.5" style="stroke:#181818;stroke-width:.5"/><text x="60" y="110.995" fill="#000" font-family="sans-serif" font-size="14" lengthAdjust="spacing" textLength="9">2</text></g><g id="elem_3"><rect id="3" width="15" height="26.297" x="107" y="93" fill="#F1F1F1" rx="2.5" ry="2.5" style="stroke:#181818;stroke-width:.5"/><text x="110" y="110.995" fill="#000" font-family="sans-serif" font-size="14" lengthAdjust="spacing" textLength="9">3</text></g><g id="elem_4"><rect id="4" width="15" height="26.297" x="7" y="179" fill="#F1F1F1" rx="2.5" ry="2.5" style="stroke:#181818;stroke-width:.5"/><text x="10" y="196.995" fill="#000" font-family="sans-serif" font-size="14" lengthAdjust="spacing" textLength="9">4</text></g><g id="elem_5"><rect id="5" width="15" height="26.297" x="57" y="179" fill="#F1F1F1" rx="2.5" ry="2.5" style="stroke:#181818;stroke-width:.5"/><text x="60" y="196.995" fill="#000" font-family="sans-serif" font-size="14" lengthAdjust="spacing" textLength="9">5</text></g><g id="elem_6"><rect id="6" width="15" height="26.297" x="107" y="179" fill="#F1F1F1" rx="2.5" ry="2.5" style="stroke:#181818;stroke-width:.5"/><text x="110" y="196.995" fill="#000" font-family="sans-serif" font-size="14" lengthAdjust="spacing" textLength="9">6</text></g><g id="elem_7"><rect id="7" width="15" height="26.297" x="157" y="179" fill="#F1F1F1" rx="2.5" ry="2.5" style="stroke:#181818;stroke-width:.5"/><text x="160" y="196.995" fill="#000" font-family="sans-serif" font-size="14" lengthAdjust="spacing" textLength="9">7</text></g><g id="link_1_2"><path id="1-to-2" fill="none" d="M85.92,33.04 C81.65,47.38 74.48,71.46 69.63,87.78" codeLine="6" style="stroke:#181818;stroke-width:1"/><polygon fill="#181818" points="68.08 92.99 74.461 85.487 69.493 88.194 66.787 83.226 68.08 92.99" style="stroke:#181818;stroke-width:1"/></g><g id="link_1_3"><path id="1-to-3" fill="none" d="M93.08,33.04 C97.35,47.38 104.52,71.46 109.37,87.78" codeLine="7" style="stroke:#181818;stroke-width:1"/><polygon fill="#181818" points="110.92 92.99 112.213 83.226 109.507 88.194 104.539 85.487 110.92 92.99" style="stroke:#181818;stroke-width:1"/></g><g id="link_2_4"><path id="2-to-4" fill="none" d="M57.34,119.04 C48.65,133.63 33.96,158.3 24.25,174.62" codeLine="8" style="stroke:#181818;stroke-width:1"/><polygon fill="#181818" points="21.65 178.99 29.688 173.299 24.206 174.692 22.812 169.21 21.65 178.99" style="stroke:#181818;stroke-width:1"/></g><g id="link_2_5"><path id="2-to-5" fill="none" d="M64.5,119.04 C64.5,133.38 64.5,157.46 64.5,173.78" codeLine="9" style="stroke:#181818;stroke-width:1"/><polygon fill="#181818" points="64.5 178.99 68.5 169.99 64.5 173.99 60.5 169.99 64.5 178.99" style="stroke:#181818;stroke-width:1"/></g><g id="link_3_6"><path id="3-to-6" fill="none" d="M114.5,119.04 C114.5,133.38 114.5,157.46 114.5,173.78" codeLine="10" style="stroke:#181818;stroke-width:1"/><polygon fill="#181818" points="114.5 178.99 118.5 169.99 114.5 173.99 110.5 169.99 114.5 178.99" style="stroke:#181818;stroke-width:1"/></g><g id="link_3_7"><path id="3-to-7" fill="none" d="M121.66,119.04 C130.35,133.63 145.04,158.3 154.75,174.62" codeLine="11" style="stroke:#181818;stroke-width:1"/><polygon fill="#181818" points="157.35 178.99 156.188 169.21 154.794 174.692 149.312 173.299 157.35 178.99" style="stroke:#181818;stroke-width:1"/></g></g></svg>