<svg xmlns="http://www.w3.org/2000/svg" xmlns:xlink="http://www.w3.org/1999/xlink" width="175" height="211" contentStyleType="text/css" preserveAspectRatio="none" style="width:175px;height:211px;background:#fff" version="1.1" viewBox="0 0 175 211" zoomAndPan="magnify"><g><g id="elem_a"><rect id="a" width="14" height="26.297" x="56.5" y="7" fill="#F1F1F1" codeLine="4" rx="2.5" ry="2.5" style="stroke:#181818;stroke-width:.5"/><text x="59.5" y="24.995" fill="#000" font-family="sans-serif" font-size="14" lengthAdjust="spacing" textLength="8">a</text></g><g id="elem_b"><rect id="b" width="15" height="26.297" x="31" y="93" fill="#F1F1F1" rx="2.5" ry="2.5" style="stroke:#181818;stroke-width:.5"/><text x="34" y="110.995" fill="#000" font-family="sans-serif" font-size="14" lengthAdjust="spacing" textLength="9">b</text></g><g id="elem_d"><rect id="d" width="15" height="26.297" x="7" y="179" fill="#F1F1F1" rx="2.5" ry="2.5" style="stroke:#181818;stroke-width:.5"/><text x="10" y="196.995" fill="#000" font-family="sans-serif" font-size="14" lengthAdjust="spacing" textLength="9">d</text></g><g id="elem_c"><rect id="c" width="14" height="26.297" x="81.5" y="93" fill="#F1F1F1" rx="2.5" ry="2.5" style="stroke:#181818;stroke-width:.5"/><text x="84.5" y="110.995" fill="#000" font-family="sans-serif" font-size="14" lengthAdjust="spacing" textLength="8">c</text></g><g id="elem_e"><rect id="e" width="15" height="26.297" x="57" y="179" fill="#F1F1F1" rx="2.5" ry="2.5" style="stroke:#181818;stroke-width:.5"/><text x="60" y="196.995" fill="#000" font-family="sans-serif" font-size="14" lengthAdjust="spacing" textLength="9">e</text></g><g id="elem_f"><rect id="f" width="10" height="26.297" x="107.5" y="179" fill="#F1F1F1" rx="2.5" ry="2.5" style="stroke:#181818;stroke-width:.5"/><text x="110.5" y="196.995" fill="#000" font-family="sans-serif" font-size="14" lengthAdjust="spacing" textLength="4">f</text></g><g id="elem_g"><rect id="g" width="15" height="26.297" x="153" y="179" fill="#F1F1F1" rx="2.5" ry="2.5" style="stroke:#181818;stroke-width:.5"/><text x="156" y="196.995" fill="#000" font-family="sans-serif" font-size="14" lengthAdjust="spacing" textLength="9">g</text></g><g id="link_a_b"><path id="a-to-b" fill="none" d="M59.92,33.04 C55.65,47.38 48.48,71.46 43.63,87.78" codeLine="6" style="stroke:#181818;stroke-width:1"/><polygon fill="#181818" points="42.08 92.99 48.461 85.487 43.493 88.194 40.787 83.226 42.08 92.99" style="stroke:#181818;stroke-width:1"/></g><g id="link_b_d"><path id="b-to-d" fill="none" d="M35.06,119.04 C30.96,133.38 24.08,157.46 19.42,173.78" codeLine="7" style="stroke:#181818;stroke-width:1"/><polygon fill="#181818" points="17.93 178.99 24.243 171.43 19.3 174.181 16.549 169.238 17.93 178.99" style="stroke:#181818;stroke-width:1"/></g><g id="link_a_c"><path id="a-to-c" fill="none" d="M67.08,33.04 C71.35,47.38 78.52,71.46 83.37,87.78" codeLine="8" style="stroke:#181818;stroke-width:1"/><polygon fill="#181818" points="84.92 92.99 86.213 83.226 83.507 88.194 78.539 85.487 84.92 92.99" style="stroke:#181818;stroke-width:1"/></g><g id="link_c_e"><path id="c-to-e" fill="none" d="M85.06,119.04 C80.96,133.38 74.08,157.46 69.42,173.78" codeLine="9" style="stroke:#181818;stroke-width:1"/><polygon fill="#181818" points="67.93 178.99 74.243 171.43 69.3 174.181 66.549 169.238 67.93 178.99" style="stroke:#181818;stroke-width:1"/></g><g id="link_c_f"><path id="c-to-f" fill="none" d="M91.94,119.04 C96.04,133.38 102.92,157.46 107.58,173.78" codeLine="10" style="stroke:#181818;stroke-width:1"/><polygon fill="#181818" points="109.07 178.99 110.451 169.238 107.7 174.181 102.757 171.43 109.07 178.99" style="stroke:#181818;stroke-width:1"/></g><g id="link_c_g"><path id="c-to-g" fill="none" d="M95.67,115.36 C108.26,130.05 134.43,160.59 149.39,178.03" codeLine="11" style="stroke:#181818;stroke-width:1"/><polygon fill="#181818" points="152.93 182.17 150.11 172.733 149.676 178.374 144.036 177.94 152.93 182.17" style="stroke:#181818;stroke-width:1"/></g></g></svg>