<svg xmlns="http://www.w3.org/2000/svg" xmlns:xlink="http://www.w3.org/1999/xlink" width="104" height="212" contentStyleType="text/css" preserveAspectRatio="none" style="width:104px;height:212px;background:#fff" version="1.1" viewBox="0 0 104 212" zoomAndPan="magnify"><g><g id="elem_5"><rect id="5" width="15" height="26.488" x="57" y="7" fill="#F1F1F1" codeLine="4" rx="2.5" ry="2.5" style="stroke:#181818;stroke-width:.5"/><text x="60" y="25.535" fill="#000" font-family="sans-serif" font-size="14" lengthAdjust="spacing" textLength="9">5</text></g><g id="elem_3"><rect id="3" width="15" height="26.488" x="32" y="93.48" fill="#F1F1F1" rx="2.5" ry="2.5" style="stroke:#181818;stroke-width:.5"/><text x="35" y="112.015" fill="#000" font-family="sans-serif" font-size="14" lengthAdjust="spacing" textLength="9">3</text></g><g id="elem_7"><rect id="7" width="15" height="26.488" x="82" y="93.48" fill="#F1F1F1" rx="2.5" ry="2.5" style="stroke:#181818;stroke-width:.5"/><text x="85" y="112.015" fill="#000" font-family="sans-serif" font-size="14" lengthAdjust="spacing" textLength="9">7</text></g><g id="elem_2"><rect id="2" width="15" height="26.488" x="7" y="179.97" fill="#F1F1F1" rx="2.5" ry="2.5" style="stroke:#181818;stroke-width:.5"/><text x="10" y="198.505" fill="#000" font-family="sans-serif" font-size="14" lengthAdjust="spacing" textLength="9">2</text></g><g id="elem_4"><rect id="4" width="15" height="26.488" x="57" y="179.97" fill="#F1F1F1" rx="2.5" ry="2.5" style="stroke:#181818;stroke-width:.5"/><text x="60" y="198.505" fill="#000" font-family="sans-serif" font-size="14" lengthAdjust="spacing" textLength="9">4</text></g><g id="link_5_3"><path id="5-3" fill="none" d="M60.81,33.71 C56.08,49.68 47.94,77.21 43.2,93.21" codeLine="5" style="stroke:#181818;stroke-width:1"/></g><g id="link_5_7"><path id="5-7" fill="none" d="M68.19,33.71 C72.92,49.68 81.06,77.21 85.8,93.21" codeLine="6" style="stroke:#181818;stroke-width:1"/></g><g id="link_3_2"><path id="3-2" fill="none" d="M35.81,120.19 C31.08,136.17 22.94,163.7 18.2,179.7" codeLine="7" style="stroke:#181818;stroke-width:1"/></g><g id="link_3_4"><path id="3-4" fill="none" d="M43.19,120.19 C47.92,136.17 56.06,163.7 60.8,179.7" codeLine="8" style="stroke:#181818;stroke-width:1"/></g></g></svg>