<svg xmlns="http://www.w3.org/2000/svg" xmlns:xlink="http://www.w3.org/1999/xlink" width="179" height="212" contentStyleType="text/css" preserveAspectRatio="none" style="width:179px;height:212px;background:#fff" version="1.1" viewBox="0 0 179 212" zoomAndPan="magnify"><g><g id="elem_5"><rect id="5" width="15" height="26.488" x="82" y="7" fill="#F1F1F1" codeLine="4" rx="2.5" ry="2.5" style="stroke:#181818;stroke-width:.5"/><text x="85" y="25.535" fill="#000" font-family="sans-serif" font-size="14" lengthAdjust="spacing" textLength="9">5</text></g><g id="elem_3"><rect id="3" width="15" height="26.488" x="57" y="93.48" fill="#F1F1F1" rx="2.5" ry="2.5" style="stroke:#181818;stroke-width:.5"/><text x="60" y="112.015" fill="#000" font-family="sans-serif" font-size="14" lengthAdjust="spacing" textLength="9">3</text></g><g id="elem_7"><rect id="7" width="15" height="26.488" x="107" y="93.48" fill="#F1F1F1" rx="2.5" ry="2.5" style="stroke:#181818;stroke-width:.5"/><text x="110" y="112.015" fill="#000" font-family="sans-serif" font-size="14" lengthAdjust="spacing" textLength="9">7</text></g><g id="elem_2"><rect id="2" width="15" height="26.488" x="7" y="179.97" fill="#F1F1F1" rx="2.5" ry="2.5" style="stroke:#181818;stroke-width:.5"/><text x="10" y="198.505" fill="#000" font-family="sans-serif" font-size="14" lengthAdjust="spacing" textLength="9">2</text></g><g id="elem_4"><rect id="4" width="15" height="26.488" x="57" y="179.97" fill="#F1F1F1" rx="2.5" ry="2.5" style="stroke:#181818;stroke-width:.5"/><text x="60" y="198.505" fill="#000" font-family="sans-serif" font-size="14" lengthAdjust="spacing" textLength="9">4</text></g><g id="elem_6"><rect id="6" width="15" height="26.488" x="107" y="179.97" fill="#F1F1F1" rx="2.5" ry="2.5" style="stroke:#181818;stroke-width:.5"/><text x="110" y="198.505" fill="#000" font-family="sans-serif" font-size="14" lengthAdjust="spacing" textLength="9">6</text></g><g id="elem_8"><rect id="8" width="15" height="26.488" x="157" y="179.97" fill="#F1F1F1" rx="2.5" ry="2.5" style="stroke:#181818;stroke-width:.5"/><text x="160" y="198.505" fill="#000" font-family="sans-serif" font-size="14" lengthAdjust="spacing" textLength="9">8</text></g><g id="link_5_3"><path id="5-3" fill="none" d="M85.81,33.71 C81.08,49.68 72.94,77.21 68.2,93.21" codeLine="5" style="stroke:#181818;stroke-width:1"/></g><g id="link_5_7"><path id="5-7" fill="none" d="M93.19,33.71 C97.92,49.68 106.06,77.21 110.8,93.21" codeLine="6" style="stroke:#181818;stroke-width:1"/></g><g id="link_3_2"><path id="3-2" fill="none" d="M57.12,120.19 C47.67,136.17 31.38,163.7 21.91,179.7" codeLine="7" style="stroke:#181818;stroke-width:1"/></g><g id="link_3_4"><path id="3-4" fill="none" d="M64.5,120.19 C64.5,136.17 64.5,163.7 64.5,179.7" codeLine="8" style="stroke:#181818;stroke-width:1"/></g><g id="link_7_6"><path id="7-6" fill="none" d="M114.5,120.19 C114.5,136.17 114.5,163.7 114.5,179.7" codeLine="9" style="stroke:#181818;stroke-width:1"/></g><g id="link_7_8"><path id="7-8" fill="none" d="M121.88,120.19 C131.33,136.17 147.62,163.7 157.09,179.7" codeLine="10" style="stroke:#181818;stroke-width:1"/></g></g></svg>