<svg xmlns="http://www.w3.org/2000/svg" xmlns:xlink="http://www.w3.org/1999/xlink" width="524" height="195" contentStyleType="text/css" preserveAspectRatio="none" style="width:524px;height:195px;background:#fff" version="1.1" viewBox="0 0 524 195" zoomAndPan="magnify"><g><g id="elem_Node"><rect id="Node" width="237" height="181.475" x="280.5" y="7" fill="#F1F1F1" codeLine="1" rx="2.5" ry="2.5" style="stroke:#181818;stroke-width:.5"/><ellipse cx="376.75" cy="23" fill="#ADD1B2" rx="11" ry="11" style="stroke:#181818;stroke-width:1"/><path fill="#000" d="M376.2188,29.9219 Q374.4688,29.9219 373.3281,29.1875 Q372.2031,28.4375 371.6406,27.0938 Q371.0938,25.7344 371.0938,23.9375 Q371.0938,21.9063 371.75,20.4531 Q372.4063,19 373.6875,18.2188 Q374.9688,17.4375 376.8438,17.4375 Q377.7344,17.4375 378.4063,17.625 Q379.0781,17.7969 379.7656,18.1406 L378.9531,20.1563 Q378.3281,19.8438 377.7813,19.7188 Q377.25,19.5938 376.7656,19.5938 Q375.5938,19.5938 374.8906,20.125 Q374.1875,20.6563 373.8906,21.6094 Q373.5938,22.5625 373.5938,23.8281 Q373.5938,25.8438 374.3125,26.8125 Q375.0313,27.7656 376.625,27.7656 Q377.2188,27.7656 377.8438,27.6094 Q378.4688,27.4531 379.2969,27.0781 L379.2969,29.2969 Q378.5625,29.6094 377.7656,29.7656 Q376.9844,29.9219 376.2188,29.9219 Z"/><text x="397.25" y="28.432" fill="#000" font-family="sans-serif" font-size="14" lengthAdjust="spacing" textLength="36">Node</text><line style="stroke:#181818;stroke-width:.5" x1="281.5" x2="516.5" y1="39" y2="39"/><rect width="6" height="6" x="288.5" fill="none" style="stroke:#c82930;stroke-width:1" y="51.034"/><text x="300.5" y="57.966" fill="#000" font-family="sans-serif" font-size="14" lengthAdjust="spacing" textLength="81">String value</text><rect width="6" height="6" x="288.5" fill="none" style="stroke:#c82930;stroke-width:1" y="70.102"/><text x="300.5" y="77.034" fill="#000" font-family="sans-serif" font-size="14" lengthAdjust="spacing" textLength="69">Node next</text><line style="stroke:#181818;stroke-width:.5" x1="281.5" x2="516.5" y1="85.136" y2="85.136"/><ellipse cx="291.5" cy="100.17" fill="#84BE84" rx="3" ry="3" style="stroke:#038048;stroke-width:1"/><text x="300.5" y="104.102" fill="#000" font-family="sans-serif" font-size="14" lengthAdjust="spacing" textLength="129">Node (String value)</text><ellipse cx="291.5" cy="119.238" fill="#84BE84" rx="3" ry="3" style="stroke:#038048;stroke-width:1"/><text x="300.5" y="123.17" fill="#000" font-family="sans-serif" font-size="14" lengthAdjust="spacing" textLength="112">String getValue()</text><ellipse cx="291.5" cy="138.306" fill="#84BE84" rx="3" ry="3" style="stroke:#038048;stroke-width:1"/><text x="300.5" y="142.238" fill="#000" font-family="sans-serif" font-size="14" lengthAdjust="spacing" textLength="211">void setValue (String newValue)</text><ellipse cx="291.5" cy="157.374" fill="#84BE84" rx="3" ry="3" style="stroke:#038048;stroke-width:1"/><text x="300.5" y="161.305" fill="#000" font-family="sans-serif" font-size="14" lengthAdjust="spacing" textLength="101">Node getNext()</text><ellipse cx="291.5" cy="176.441" fill="#84BE84" rx="3" ry="3" style="stroke:#038048;stroke-width:1"/><text x="300.5" y="180.373" fill="#000" font-family="sans-serif" font-size="14" lengthAdjust="spacing" textLength="160">void setNext(Node next)</text></g><g id="elem_List"><rect id="List" width="186" height="162.407" x="7" y="16.5" fill="#F1F1F1" codeLine="11" rx="2.5" ry="2.5" style="stroke:#181818;stroke-width:.5"/><ellipse cx="84.25" cy="32.5" fill="#ADD1B2" rx="11" ry="11" style="stroke:#181818;stroke-width:1"/><path fill="#000" d="M83.7188,39.4219 Q81.9688,39.4219 80.8281,38.6875 Q79.7031,37.9375 79.1406,36.5938 Q78.5938,35.2344 78.5938,33.4375 Q78.5938,31.4063 79.25,29.9531 Q79.9063,28.5 81.1875,27.7188 Q82.4688,26.9375 84.3438,26.9375 Q85.2344,26.9375 85.9063,27.125 Q86.5781,27.2969 87.2656,27.6406 L86.4531,29.6563 Q85.8281,29.3438 85.2813,29.2188 Q84.75,29.0938 84.2656,29.0938 Q83.0938,29.0938 82.3906,29.625 Q81.6875,30.1563 81.3906,31.1094 Q81.0938,32.0625 81.0938,33.3281 Q81.0938,35.3438 81.8125,36.3125 Q82.5313,37.2656 84.125,37.2656 Q84.7188,37.2656 85.3438,37.1094 Q85.9688,36.9531 86.7969,36.5781 L86.7969,38.7969 Q86.0625,39.1094 85.2656,39.2656 Q84.4844,39.4219 83.7188,39.4219 Z"/><text x="104.75" y="37.932" fill="#000" font-family="sans-serif" font-size="14" lengthAdjust="spacing" textLength="23">List</text><line style="stroke:#181818;stroke-width:.5" x1="8" x2="192" y1="48.5" y2="48.5"/><rect width="6" height="6" x="15" fill="none" style="stroke:#c82930;stroke-width:1" y="60.534"/><text x="27" y="67.466" fill="#000" font-family="sans-serif" font-size="14" lengthAdjust="spacing" textLength="67">Node first</text><line style="stroke:#181818;stroke-width:.5" x1="8" x2="192" y1="75.568" y2="75.568"/><ellipse cx="18" cy="90.602" fill="#84BE84" rx="3" ry="3" style="stroke:#038048;stroke-width:1"/><text x="27" y="94.534" fill="#000" font-family="sans-serif" font-size="14" lengthAdjust="spacing" textLength="56">int size()</text><ellipse cx="18" cy="109.67" fill="#84BE84" rx="3" ry="3" style="stroke:#038048;stroke-width:1"/><text x="27" y="113.602" fill="#000" font-family="sans-serif" font-size="14" lengthAdjust="spacing" textLength="119">boolean isEmpty()</text><ellipse cx="18" cy="128.738" fill="#84BE84" rx="3" ry="3" style="stroke:#038048;stroke-width:1"/><text x="27" y="132.67" fill="#000" font-family="sans-serif" font-size="14" lengthAdjust="spacing" textLength="160">void insert(String value)</text><ellipse cx="18" cy="147.806" fill="#84BE84" rx="3" ry="3" style="stroke:#038048;stroke-width:1"/><text x="27" y="151.738" fill="#000" font-family="sans-serif" font-size="14" lengthAdjust="spacing" textLength="82">void delete()</text><ellipse cx="18" cy="166.874" fill="#84BE84" rx="3" ry="3" style="stroke:#038048;stroke-width:1"/><text x="27" y="170.805" fill="#000" font-family="sans-serif" font-size="14" lengthAdjust="spacing" textLength="103">String[] ListAll()</text></g><g id="link_List_Node"><path id="List-to-Node" fill="none" d="M193.38,97.5 C219.35,97.5 247.96,97.5 275.38,97.5" codeLine="20" style="stroke:#181818;stroke-width:1"/><polygon fill="#181818" points="280.48 97.5 271.48 93.5 275.48 97.5 271.48 101.5 280.48 97.5" style="stroke:#181818;stroke-width:1"/><text x="211.25" y="90.397" fill="#000" font-family="sans-serif" font-size="13" lengthAdjust="spacing" textLength="51">contains</text><text x="265.663" y="93.86" fill="#000" font-family="sans-serif" font-size="13" lengthAdjust="spacing" textLength="7">1</text></g></g></svg>