<svg xmlns="http://www.w3.org/2000/svg" xmlns:xlink="http://www.w3.org/1999/xlink" width="782" height="528" contentStyleType="text/css" preserveAspectRatio="none" style="width:782px;height:528px;background:#fff" version="1.1" viewBox="0 0 782 528" zoomAndPan="magnify"><g><g id="elem_IDataStructure"><rect id="IDataStructure" width="149" height="105.204" x="81" y="10.016" fill="#F1F1F1" codeLine="2" rx="2.5" ry="2.5" style="stroke:#181818;stroke-width:.5"/><ellipse cx="102.3" cy="26.016" fill="#B4A7E5" rx="11" ry="11" style="stroke:#181818;stroke-width:1"/><path fill="#000" d="M98.3313,32.516 L98.3313,30.8129 L100.6906,30.5473 L100.6906,22.3441 L98.3313,22.0785 L98.3313,20.3754 L105.4719,20.3754 L105.4719,22.0785 L103.05,22.3441 L103.05,30.5473 L105.4719,30.8129 L105.4719,32.516 L98.3313,32.516 Z"/><text x="117.7" y="31.448" fill="#000" font-family="sans-serif" font-size="14" font-style="italic" lengthAdjust="spacing" textLength="93">IDataStructure</text><rect width="8" height="18.344" x="225" fill="#FFF" style="stroke:#181818;stroke-width:1;stroke-dasharray:2,2" y="7.016"/><text x="226" y="20.844" fill="#000" font-family="sans-serif" font-size="12" font-style="italic" lengthAdjust="spacing" textLength="6">T</text><line style="stroke:#181818;stroke-width:.5" x1="82" x2="229" y1="42.016" y2="42.016"/><line style="stroke:#181818;stroke-width:.5" x1="82" x2="229" y1="50.016" y2="50.016"/><ellipse cx="92" cy="65.05" fill="#84BE84" rx="3" ry="3" style="stroke:#038048;stroke-width:1"/><text x="101" y="68.982" fill="#000" font-family="sans-serif" font-size="14" lengthAdjust="spacing" textLength="123">isEmpty(): boolean</text><ellipse cx="92" cy="84.118" fill="#84BE84" rx="3" ry="3" style="stroke:#038048;stroke-width:1"/><text x="101" y="88.05" fill="#000" font-family="sans-serif" font-size="14" lengthAdjust="spacing" textLength="60">size(): int</text><ellipse cx="92" cy="103.186" fill="#84BE84" rx="3" ry="3" style="stroke:#038048;stroke-width:1"/><text x="101" y="107.118" fill="#000" font-family="sans-serif" font-size="14" lengthAdjust="spacing" textLength="121">listData(): Object[]</text></g><g id="elem_List"><rect id="List" width="245" height="124.272" x="33" y="175.016" fill="#F1F1F1" codeLine="8" rx="2.5" ry="2.5" style="stroke:#181818;stroke-width:.5"/><ellipse cx="134.75" cy="191.016" fill="#ADD1B2" rx="11" ry="11" style="stroke:#181818;stroke-width:1"/><path fill="#000" d="M134.2188,197.9379 Q132.4688,197.9379 131.3281,197.2035 Q130.2031,196.4535 129.6406,195.1098 Q129.0938,193.7504 129.0938,191.9535 Q129.0938,189.9223 129.75,188.4691 Q130.4063,187.016 131.6875,186.2348 Q132.9688,185.4535 134.8438,185.4535 Q135.7344,185.4535 136.4063,185.641 Q137.0781,185.8129 137.7656,186.1566 L136.9531,188.1723 Q136.3281,187.8598 135.7813,187.7348 Q135.25,187.6098 134.7656,187.6098 Q133.5938,187.6098 132.8906,188.141 Q132.1875,188.6723 131.8906,189.6254 Q131.5938,190.5785 131.5938,191.8441 Q131.5938,193.8598 132.3125,194.8285 Q133.0313,195.7816 134.625,195.7816 Q135.2188,195.7816 135.8438,195.6254 Q136.4688,195.4691 137.2969,195.0941 L137.2969,197.3129 Q136.5625,197.6254 135.7656,197.7816 Q134.9844,197.9379 134.2188,197.9379 Z"/><text x="155.25" y="196.448" fill="#000" font-family="sans-serif" font-size="14" lengthAdjust="spacing" textLength="23">List</text><rect width="8" height="18.344" x="273" fill="#FFF" style="stroke:#181818;stroke-width:1;stroke-dasharray:2,2" y="172.016"/><text x="274" y="185.844" fill="#000" font-family="sans-serif" font-size="12" font-style="italic" lengthAdjust="spacing" textLength="6">T</text><line style="stroke:#181818;stroke-width:.5" x1="34" x2="277" y1="207.016" y2="207.016"/><rect width="6" height="6" x="41" fill="none" style="stroke:#c82930;stroke-width:1" y="219.05"/><text x="53" y="225.982" fill="#000" font-family="sans-serif" font-size="14" lengthAdjust="spacing" textLength="95">first: Node&lt;T&gt;</text><line style="stroke:#181818;stroke-width:.5" x1="34" x2="277" y1="234.084" y2="234.084"/><ellipse cx="44" cy="249.118" fill="#84BE84" rx="3" ry="3" style="stroke:#038048;stroke-width:1"/><text x="53" y="253.05" fill="#000" font-family="sans-serif" font-size="14" lengthAdjust="spacing" textLength="219">insert(data: T, index: int): List&lt;T&gt;</text><ellipse cx="44" cy="268.186" fill="#84BE84" rx="3" ry="3" style="stroke:#038048;stroke-width:1"/><text x="53" y="272.118" fill="#000" font-family="sans-serif" font-size="14" lengthAdjust="spacing" textLength="176">remove(index: int): List&lt;T&gt;</text><ellipse cx="44" cy="287.254" fill="#84BE84" rx="3" ry="3" style="stroke:#038048;stroke-width:1"/><text x="53" y="291.186" fill="#000" font-family="sans-serif" font-size="14" lengthAdjust="spacing" textLength="127">getFirst(): Node&lt;T&gt;</text></g><g id="elem_Node"><rect id="Node" width="123" height="124.272" x="313" y="175.016" fill="#F1F1F1" codeLine="18" rx="2.5" ry="2.5" style="stroke:#181818;stroke-width:.5"/><ellipse cx="348.25" cy="191.016" fill="#ADD1B2" rx="11" ry="11" style="stroke:#181818;stroke-width:1"/><path fill="#000" d="M347.7188,197.9379 Q345.9688,197.9379 344.8281,197.2035 Q343.7031,196.4535 343.1406,195.1098 Q342.5938,193.7504 342.5938,191.9535 Q342.5938,189.9223 343.25,188.4691 Q343.9063,187.016 345.1875,186.2348 Q346.4688,185.4535 348.3438,185.4535 Q349.2344,185.4535 349.9063,185.641 Q350.5781,185.8129 351.2656,186.1566 L350.4531,188.1723 Q349.8281,187.8598 349.2813,187.7348 Q348.75,187.6098 348.2656,187.6098 Q347.0938,187.6098 346.3906,188.141 Q345.6875,188.6723 345.3906,189.6254 Q345.0938,190.5785 345.0938,191.8441 Q345.0938,193.8598 345.8125,194.8285 Q346.5313,195.7816 348.125,195.7816 Q348.7188,195.7816 349.3438,195.6254 Q349.9688,195.4691 350.7969,195.0941 L350.7969,197.3129 Q350.0625,197.6254 349.2656,197.7816 Q348.4844,197.9379 347.7188,197.9379 Z"/><text x="366.75" y="196.448" fill="#000" font-family="sans-serif" font-size="14" lengthAdjust="spacing" textLength="36">Node</text><rect width="8" height="18.344" x="431" fill="#FFF" style="stroke:#181818;stroke-width:1;stroke-dasharray:2,2" y="172.016"/><text x="432" y="185.844" fill="#000" font-family="sans-serif" font-size="12" font-style="italic" lengthAdjust="spacing" textLength="6">T</text><line style="stroke:#181818;stroke-width:.5" x1="314" x2="435" y1="207.016" y2="207.016"/><rect width="6" height="6" x="321" fill="none" style="stroke:#c82930;stroke-width:1" y="219.05"/><text x="333" y="225.982" fill="#000" font-family="sans-serif" font-size="14" lengthAdjust="spacing" textLength="46">data: T</text><rect width="6" height="6" x="321" fill="none" style="stroke:#c82930;stroke-width:1" y="238.118"/><text x="333" y="245.05" fill="#000" font-family="sans-serif" font-size="14" lengthAdjust="spacing" textLength="97">next: Node&lt;T&gt;</text><line style="stroke:#181818;stroke-width:.5" x1="314" x2="435" y1="253.152" y2="253.152"/><ellipse cx="324" cy="268.186" fill="#84BE84" rx="3" ry="3" style="stroke:#038048;stroke-width:1"/><text x="333" y="272.118" fill="#000" font-family="sans-serif" font-size="14" lengthAdjust="spacing" textLength="90">Node(data: T)</text><ellipse cx="324" cy="287.254" fill="#84BE84" rx="3" ry="3" style="stroke:#038048;stroke-width:1"/><text x="333" y="291.186" fill="#000" font-family="sans-serif" font-size="14" lengthAdjust="spacing" textLength="72">count(): int</text></g><g id="elem_Marathon"><rect id="Marathon" width="297" height="124.272" x="7" y="378.016" fill="#F1F1F1" codeLine="28" rx="2.5" ry="2.5" style="stroke:#181818;stroke-width:.5"/><ellipse cx="118.25" cy="394.016" fill="#ADD1B2" rx="11" ry="11" style="stroke:#181818;stroke-width:1"/><path fill="#000" d="M117.7188,400.9379 Q115.9688,400.9379 114.8281,400.2035 Q113.7031,399.4535 113.1406,398.1098 Q112.5938,396.7504 112.5938,394.9535 Q112.5938,392.9223 113.25,391.4691 Q113.9063,390.016 115.1875,389.2348 Q116.4688,388.4535 118.3438,388.4535 Q119.2344,388.4535 119.9063,388.641 Q120.5781,388.8129 121.2656,389.1566 L120.4531,391.1723 Q119.8281,390.8598 119.2813,390.7348 Q118.75,390.6098 118.2656,390.6098 Q117.0938,390.6098 116.3906,391.141 Q115.6875,391.6723 115.3906,392.6254 Q115.0938,393.5785 115.0938,394.8441 Q115.0938,396.8598 115.8125,397.8285 Q116.5313,398.7816 118.125,398.7816 Q118.7188,398.7816 119.3438,398.6254 Q119.9688,398.4691 120.7969,398.0941 L120.7969,400.3129 Q120.0625,400.6254 119.2656,400.7816 Q118.4844,400.9379 117.7188,400.9379 Z"/><text x="138.75" y="399.448" fill="#000" font-family="sans-serif" font-size="14" lengthAdjust="spacing" textLength="66">Marathon</text><line style="stroke:#181818;stroke-width:.5" x1="8" x2="303" y1="410.016" y2="410.016"/><rect width="6" height="6" x="15" fill="none" style="stroke:#c82930;stroke-width:1" y="422.05"/><text x="27" y="428.982" fill="#000" font-family="sans-serif" font-size="14" lengthAdjust="spacing" textLength="201">participants: List&lt;Participant&gt;</text><line style="stroke:#181818;stroke-width:.5" x1="8" x2="303" y1="437.084" y2="437.084"/><ellipse cx="18" cy="452.118" fill="#84BE84" rx="3" ry="3" style="stroke:#038048;stroke-width:1"/><text x="27" y="456.05" fill="#000" font-family="sans-serif" font-size="14" lengthAdjust="spacing" textLength="262">addParticipant(participant: Participant)</text><ellipse cx="18" cy="471.186" fill="#84BE84" rx="3" ry="3" style="stroke:#038048;stroke-width:1"/><text x="27" y="475.118" fill="#000" font-family="sans-serif" font-size="14" lengthAdjust="spacing" textLength="238">getParticipantNames(): List&lt;String&gt;</text><ellipse cx="18" cy="490.254" fill="#84BE84" rx="3" ry="3" style="stroke:#038048;stroke-width:1"/><text x="27" y="494.186" fill="#000" font-family="sans-serif" font-size="14" lengthAdjust="spacing" textLength="271">getParticipant(name: String): Participant</text></g><g id="elem_Participant"><rect id="Participant" width="436" height="162.407" x="339.5" y="359.016" fill="#F1F1F1" codeLine="39" rx="2.5" ry="2.5" style="stroke:#181818;stroke-width:.5"/><ellipse cx="516.75" cy="375.016" fill="#ADD1B2" rx="11" ry="11" style="stroke:#181818;stroke-width:1"/><path fill="#000" d="M516.2188,381.9379 Q514.4688,381.9379 513.3281,381.2035 Q512.2031,380.4535 511.6406,379.1098 Q511.0938,377.7504 511.0938,375.9535 Q511.0938,373.9223 511.75,372.4691 Q512.4063,371.016 513.6875,370.2348 Q514.9688,369.4535 516.8438,369.4535 Q517.7344,369.4535 518.4063,369.641 Q519.0781,369.8129 519.7656,370.1566 L518.9531,372.1723 Q518.3281,371.8598 517.7813,371.7348 Q517.25,371.6098 516.7656,371.6098 Q515.5938,371.6098 514.8906,372.141 Q514.1875,372.6723 513.8906,373.6254 Q513.5938,374.5785 513.5938,375.8441 Q513.5938,377.8598 514.3125,378.8285 Q515.0313,379.7816 516.625,379.7816 Q517.2188,379.7816 517.8438,379.6254 Q518.4688,379.4691 519.2969,379.0941 L519.2969,381.3129 Q518.5625,381.6254 517.7656,381.7816 Q516.9844,381.9379 516.2188,381.9379 Z"/><text x="537.25" y="380.448" fill="#000" font-family="sans-serif" font-size="14" lengthAdjust="spacing" textLength="73">Participant</text><line style="stroke:#181818;stroke-width:.5" x1="340.5" x2="774.5" y1="391.016" y2="391.016"/><rect width="6" height="6" x="347.5" fill="none" style="stroke:#c82930;stroke-width:1" y="403.05"/><text x="359.5" y="409.982" fill="#000" font-family="sans-serif" font-size="14" lengthAdjust="spacing" textLength="87">name: String</text><rect width="6" height="6" x="347.5" fill="none" style="stroke:#c82930;stroke-width:1" y="422.118"/><text x="359.5" y="429.05" fill="#000" font-family="sans-serif" font-size="14" lengthAdjust="spacing" textLength="100">country: String</text><rect width="6" height="6" x="347.5" fill="none" style="stroke:#c82930;stroke-width:1" y="441.186"/><text x="359.5" y="448.118" fill="#000" font-family="sans-serif" font-size="14" lengthAdjust="spacing" textLength="126">birthday: Calendar</text><rect width="6" height="6" x="347.5" fill="none" style="stroke:#c82930;stroke-width:1" y="460.254"/><text x="359.5" y="467.186" fill="#000" font-family="sans-serif" font-size="14" lengthAdjust="spacing" textLength="100">start: Calendar</text><rect width="6" height="6" x="347.5" fill="none" style="stroke:#c82930;stroke-width:1" y="479.322"/><text x="359.5" y="486.254" fill="#000" font-family="sans-serif" font-size="14" lengthAdjust="spacing" textLength="95">end: Calendar</text><line style="stroke:#181818;stroke-width:.5" x1="340.5" x2="774.5" y1="494.356" y2="494.356"/><ellipse cx="350.5" cy="509.39" fill="#84BE84" rx="3" ry="3" style="stroke:#038048;stroke-width:1"/><text x="359.5" y="513.322" fill="#000" font-family="sans-serif" font-size="14" lengthAdjust="spacing" textLength="410">Participant(name: String, country: String, birthday: Calendar)</text></g><g id="link_IDataStructure_List"><path id="IDataStructure-backto-List" fill="none" d="M155.5,135.356 C155.5,148.496 155.5,162.086 155.5,174.876" codeLine="16" style="stroke:#181818;stroke-width:1;stroke-dasharray:7,7"/><polygon fill="none" points="148.5 135.276 155.5 115.276 162.5 135.276 148.5 135.276" style="stroke:#181818;stroke-width:1"/></g><g id="link_List_Node"><path id="List-Node" fill="none" d="M290.26,237.016 C290.26,237.016 297.06,237.016 299.84,237.016" codeLine="26" style="stroke:#181818;stroke-width:1"/><polygon fill="#181818" points="312.85 237.016 303.85 233.016 307.85 237.016 303.85 241.016 312.85 237.016" style="stroke:#181818;stroke-width:1"/><line style="stroke:#181818;stroke-width:1" x1="307.85" x2="299.85" y1="237.016" y2="237.016"/><polygon fill="none" points="278.26 237.016 284.26 241.016 290.26 237.016 284.26 233.016 278.26 237.016" style="stroke:#181818;stroke-width:1"/></g><g id="link_List_Marathon"><path id="List-Marathon" fill="none" d="M155.5,312.306 C155.5,329.406 155.5,365.836 155.5,365.836" codeLine="36" style="stroke:#181818;stroke-width:1"/><polygon fill="none" points="155.5 377.836 159.5 371.836 155.5 365.836 151.5 371.836 155.5 377.836" style="stroke:#181818;stroke-width:1"/><polygon fill="#181818" points="155.5 299.146 151.5 308.146 155.5 304.146 159.5 308.146 155.5 299.146" style="stroke:#181818;stroke-width:1"/><line style="stroke:#181818;stroke-width:1" x1="155.5" x2="155.5" y1="304.146" y2="312.146"/></g><g id="link_Marathon_Participant"><path id="Marathon-Participant" fill="none" d="M316.29,440.016 C316.29,440.016 323.4,440.016 326.37,440.016" codeLine="37" style="stroke:#181818;stroke-width:1"/><polygon fill="#181818" points="339.4 440.016 330.4 436.016 334.4 440.016 330.4 444.016 339.4 440.016" style="stroke:#181818;stroke-width:1"/><line style="stroke:#181818;stroke-width:1" x1="334.4" x2="326.4" y1="440.016" y2="440.016"/><polygon fill="none" points="304.29 440.016 310.29 444.016 316.29 440.016 310.29 436.016 304.29 440.016" style="stroke:#181818;stroke-width:1"/></g></g></svg>