<svg xmlns="http://www.w3.org/2000/svg" xmlns:xlink="http://www.w3.org/1999/xlink" width="553" height="1079" contentStyleType="text/css" preserveAspectRatio="none" style="width:553px;height:1079px;background:#fff" version="1.1" viewBox="0 0 553 1079" zoomAndPan="magnify"><g><g id="elem_Program"><rect id="Program" width="90" height="48" x="396.5" y="7" fill="#F1F1F1" codeLine="2" rx="2.5" ry="2.5" style="stroke:#181818;stroke-width:.5"/><ellipse cx="411.5" cy="23" fill="#ADD1B2" rx="11" ry="11" style="stroke:#181818;stroke-width:1"/><path fill="#000" d="M410.9688,29.9219 Q409.2188,29.9219 408.0781,29.1875 Q406.9531,28.4375 406.3906,27.0938 Q405.8438,25.7344 405.8438,23.9375 Q405.8438,21.9063 406.5,20.4531 Q407.1563,19 408.4375,18.2188 Q409.7188,17.4375 411.5938,17.4375 Q412.4844,17.4375 413.1563,17.625 Q413.8281,17.7969 414.5156,18.1406 L413.7031,20.1563 Q413.0781,19.8438 412.5313,19.7188 Q412,19.5938 411.5156,19.5938 Q410.3438,19.5938 409.6406,20.125 Q408.9375,20.6563 408.6406,21.6094 Q408.3438,22.5625 408.3438,23.8281 Q408.3438,25.8438 409.0625,26.8125 Q409.7813,27.7656 411.375,27.7656 Q411.9688,27.7656 412.5938,27.6094 Q413.2188,27.4531 414.0469,27.0781 L414.0469,29.2969 Q413.3125,29.6094 412.5156,29.7656 Q411.7344,29.9219 410.9688,29.9219 Z"/><text x="425.5" y="28.432" fill="#000" font-family="sans-serif" font-size="14" lengthAdjust="spacing" textLength="58">Program</text><line style="stroke:#181818;stroke-width:.5" x1="397.5" x2="485.5" y1="39" y2="39"/><line style="stroke:#181818;stroke-width:.5" x1="397.5" x2="485.5" y1="47" y2="47"/></g><g id="elem_Package"><rect id="Package" width="87" height="48" x="398" y="116" fill="#F1F1F1" codeLine="3" rx="2.5" ry="2.5" style="stroke:#181818;stroke-width:.5"/><ellipse cx="413" cy="132" fill="#ADD1B2" rx="11" ry="11" style="stroke:#181818;stroke-width:1"/><path fill="#000" d="M412.4688,138.9219 Q410.7188,138.9219 409.5781,138.1875 Q408.4531,137.4375 407.8906,136.0938 Q407.3438,134.7344 407.3438,132.9375 Q407.3438,130.9063 408,129.4531 Q408.6563,128 409.9375,127.2188 Q411.2188,126.4375 413.0938,126.4375 Q413.9844,126.4375 414.6563,126.625 Q415.3281,126.7969 416.0156,127.1406 L415.2031,129.1563 Q414.5781,128.8438 414.0313,128.7188 Q413.5,128.5938 413.0156,128.5938 Q411.8438,128.5938 411.1406,129.125 Q410.4375,129.6563 410.1406,130.6094 Q409.8438,131.5625 409.8438,132.8281 Q409.8438,134.8438 410.5625,135.8125 Q411.2813,136.7656 412.875,136.7656 Q413.4688,136.7656 414.0938,136.6094 Q414.7188,136.4531 415.5469,136.0781 L415.5469,138.2969 Q414.8125,138.6094 414.0156,138.7656 Q413.2344,138.9219 412.4688,138.9219 Z"/><text x="427" y="137.432" fill="#000" font-family="sans-serif" font-size="14" lengthAdjust="spacing" textLength="55">Package</text><line style="stroke:#181818;stroke-width:.5" x1="399" x2="484" y1="148" y2="148"/><line style="stroke:#181818;stroke-width:.5" x1="399" x2="484" y1="156" y2="156"/></g><g id="elem_Class"><rect id="Class" width="67" height="48" x="408" y="225" fill="#F1F1F1" codeLine="4" rx="2.5" ry="2.5" style="stroke:#181818;stroke-width:.5"/><ellipse cx="423" cy="241" fill="#ADD1B2" rx="11" ry="11" style="stroke:#181818;stroke-width:1"/><path fill="#000" d="M422.4688,247.9219 Q420.7188,247.9219 419.5781,247.1875 Q418.4531,246.4375 417.8906,245.0938 Q417.3438,243.7344 417.3438,241.9375 Q417.3438,239.9063 418,238.4531 Q418.6563,237 419.9375,236.2188 Q421.2188,235.4375 423.0938,235.4375 Q423.9844,235.4375 424.6563,235.625 Q425.3281,235.7969 426.0156,236.1406 L425.2031,238.1563 Q424.5781,237.8438 424.0313,237.7188 Q423.5,237.5938 423.0156,237.5938 Q421.8438,237.5938 421.1406,238.125 Q420.4375,238.6563 420.1406,239.6094 Q419.8438,240.5625 419.8438,241.8281 Q419.8438,243.8438 420.5625,244.8125 Q421.2813,245.7656 422.875,245.7656 Q423.4688,245.7656 424.0938,245.6094 Q424.7188,245.4531 425.5469,245.0781 L425.5469,247.2969 Q424.8125,247.6094 424.0156,247.7656 Q423.2344,247.9219 422.4688,247.9219 Z"/><text x="437" y="246.432" fill="#000" font-family="sans-serif" font-size="14" lengthAdjust="spacing" textLength="35">Class</text><line style="stroke:#181818;stroke-width:.5" x1="409" x2="474" y1="257" y2="257"/><line style="stroke:#181818;stroke-width:.5" x1="409" x2="474" y1="265" y2="265"/></g><g id="elem_Method"><rect id="Method" width="84" height="48" x="243.5" y="334" fill="#F1F1F1" codeLine="5" rx="2.5" ry="2.5" style="stroke:#181818;stroke-width:.5"/><ellipse cx="258.5" cy="350" fill="#ADD1B2" rx="11" ry="11" style="stroke:#181818;stroke-width:1"/><path fill="#000" d="M257.9688,356.9219 Q256.2188,356.9219 255.0781,356.1875 Q253.9531,355.4375 253.3906,354.0938 Q252.8438,352.7344 252.8438,350.9375 Q252.8438,348.9063 253.5,347.4531 Q254.1563,346 255.4375,345.2188 Q256.7188,344.4375 258.5938,344.4375 Q259.4844,344.4375 260.1563,344.625 Q260.8281,344.7969 261.5156,345.1406 L260.7031,347.1563 Q260.0781,346.8438 259.5313,346.7188 Q259,346.5938 258.5156,346.5938 Q257.3438,346.5938 256.6406,347.125 Q255.9375,347.6563 255.6406,348.6094 Q255.3438,349.5625 255.3438,350.8281 Q255.3438,352.8438 256.0625,353.8125 Q256.7813,354.7656 258.375,354.7656 Q258.9688,354.7656 259.5938,354.6094 Q260.2188,354.4531 261.0469,354.0781 L261.0469,356.2969 Q260.3125,356.6094 259.5156,356.7656 Q258.7344,356.9219 257.9688,356.9219 Z"/><text x="272.5" y="355.432" fill="#000" font-family="sans-serif" font-size="14" lengthAdjust="spacing" textLength="52">Method</text><line style="stroke:#181818;stroke-width:.5" x1="244.5" x2="326.5" y1="366" y2="366"/><line style="stroke:#181818;stroke-width:.5" x1="244.5" x2="326.5" y1="374" y2="374"/></g><g id="elem_Sentence"><rect id="Sentence" width="94" height="48" x="71.5" y="443" fill="#F1F1F1" codeLine="6" rx="2.5" ry="2.5" style="stroke:#181818;stroke-width:.5"/><ellipse cx="86.5" cy="459" fill="#ADD1B2" rx="11" ry="11" style="stroke:#181818;stroke-width:1"/><path fill="#000" d="M85.9688,465.9219 Q84.2188,465.9219 83.0781,465.1875 Q81.9531,464.4375 81.3906,463.0938 Q80.8438,461.7344 80.8438,459.9375 Q80.8438,457.9063 81.5,456.4531 Q82.1563,455 83.4375,454.2188 Q84.7188,453.4375 86.5938,453.4375 Q87.4844,453.4375 88.1563,453.625 Q88.8281,453.7969 89.5156,454.1406 L88.7031,456.1563 Q88.0781,455.8438 87.5313,455.7188 Q87,455.5938 86.5156,455.5938 Q85.3438,455.5938 84.6406,456.125 Q83.9375,456.6563 83.6406,457.6094 Q83.3438,458.5625 83.3438,459.8281 Q83.3438,461.8438 84.0625,462.8125 Q84.7813,463.7656 86.375,463.7656 Q86.9688,463.7656 87.5938,463.6094 Q88.2188,463.4531 89.0469,463.0781 L89.0469,465.2969 Q88.3125,465.6094 87.5156,465.7656 Q86.7344,465.9219 85.9688,465.9219 Z"/><text x="100.5" y="464.432" fill="#000" font-family="sans-serif" font-size="14" lengthAdjust="spacing" textLength="62">Sentence</text><line style="stroke:#181818;stroke-width:.5" x1="72.5" x2="164.5" y1="475" y2="475"/><line style="stroke:#181818;stroke-width:.5" x1="72.5" x2="164.5" y1="483" y2="483"/></g><g id="elem_Expression"><rect id="Expression" width="105" height="48" x="49" y="570" fill="#F1F1F1" codeLine="7" rx="2.5" ry="2.5" style="stroke:#181818;stroke-width:.5"/><ellipse cx="64" cy="586" fill="#ADD1B2" rx="11" ry="11" style="stroke:#181818;stroke-width:1"/><path fill="#000" d="M63.4688,592.9219 Q61.7188,592.9219 60.5781,592.1875 Q59.4531,591.4375 58.8906,590.0938 Q58.3438,588.7344 58.3438,586.9375 Q58.3438,584.9063 59,583.4531 Q59.6563,582 60.9375,581.2188 Q62.2188,580.4375 64.0938,580.4375 Q64.9844,580.4375 65.6563,580.625 Q66.3281,580.7969 67.0156,581.1406 L66.2031,583.1563 Q65.5781,582.8438 65.0313,582.7188 Q64.5,582.5938 64.0156,582.5938 Q62.8438,582.5938 62.1406,583.125 Q61.4375,583.6563 61.1406,584.6094 Q60.8438,585.5625 60.8438,586.8281 Q60.8438,588.8438 61.5625,589.8125 Q62.2813,590.7656 63.875,590.7656 Q64.4688,590.7656 65.0938,590.6094 Q65.7188,590.4531 66.5469,590.0781 L66.5469,592.2969 Q65.8125,592.6094 65.0156,592.7656 Q64.2344,592.9219 63.4688,592.9219 Z"/><text x="78" y="591.432" fill="#000" font-family="sans-serif" font-size="14" lengthAdjust="spacing" textLength="73">Expression</text><line style="stroke:#181818;stroke-width:.5" x1="50" x2="153" y1="602" y2="602"/><line style="stroke:#181818;stroke-width:.5" x1="50" x2="153" y1="610" y2="610"/></g><g id="elem_Operator"><rect id="Operator" width="93" height="48" x="7" y="679" fill="#F1F1F1" codeLine="8" rx="2.5" ry="2.5" style="stroke:#181818;stroke-width:.5"/><ellipse cx="22" cy="695" fill="#ADD1B2" rx="11" ry="11" style="stroke:#181818;stroke-width:1"/><path fill="#000" d="M21.4688,701.9219 Q19.7188,701.9219 18.5781,701.1875 Q17.4531,700.4375 16.8906,699.0938 Q16.3438,697.7344 16.3438,695.9375 Q16.3438,693.9063 17,692.4531 Q17.6563,691 18.9375,690.2188 Q20.2188,689.4375 22.0938,689.4375 Q22.9844,689.4375 23.6563,689.625 Q24.3281,689.7969 25.0156,690.1406 L24.2031,692.1563 Q23.5781,691.8438 23.0313,691.7188 Q22.5,691.5938 22.0156,691.5938 Q20.8438,691.5938 20.1406,692.125 Q19.4375,692.6563 19.1406,693.6094 Q18.8438,694.5625 18.8438,695.8281 Q18.8438,697.8438 19.5625,698.8125 Q20.2813,699.7656 21.875,699.7656 Q22.4688,699.7656 23.0938,699.6094 Q23.7188,699.4531 24.5469,699.0781 L24.5469,701.2969 Q23.8125,701.6094 23.0156,701.7656 Q22.2344,701.9219 21.4688,701.9219 Z"/><text x="36" y="700.432" fill="#000" font-family="sans-serif" font-size="14" lengthAdjust="spacing" textLength="61">Operator</text><line style="stroke:#181818;stroke-width:.5" x1="8" x2="99" y1="711" y2="711"/><line style="stroke:#181818;stroke-width:.5" x1="8" x2="99" y1="719" y2="719"/></g><g id="elem_Data"><rect id="Data" width="63" height="48" x="218" y="788" fill="#F1F1F1" codeLine="9" rx="2.5" ry="2.5" style="stroke:#181818;stroke-width:.5"/><ellipse cx="233" cy="804" fill="#ADD1B2" rx="11" ry="11" style="stroke:#181818;stroke-width:1"/><path fill="#000" d="M232.4688,810.9219 Q230.7188,810.9219 229.5781,810.1875 Q228.4531,809.4375 227.8906,808.0938 Q227.3438,806.7344 227.3438,804.9375 Q227.3438,802.9063 228,801.4531 Q228.6563,800 229.9375,799.2188 Q231.2188,798.4375 233.0938,798.4375 Q233.9844,798.4375 234.6563,798.625 Q235.3281,798.7969 236.0156,799.1406 L235.2031,801.1563 Q234.5781,800.8438 234.0313,800.7188 Q233.5,800.5938 233.0156,800.5938 Q231.8438,800.5938 231.1406,801.125 Q230.4375,801.6563 230.1406,802.6094 Q229.8438,803.5625 229.8438,804.8281 Q229.8438,806.8438 230.5625,807.8125 Q231.2813,808.7656 232.875,808.7656 Q233.4688,808.7656 234.0938,808.6094 Q234.7188,808.4531 235.5469,808.0781 L235.5469,810.2969 Q234.8125,810.6094 234.0156,810.7656 Q233.2344,810.9219 232.4688,810.9219 Z"/><text x="247" y="809.432" fill="#000" font-family="sans-serif" font-size="14" lengthAdjust="spacing" textLength="31">Data</text><line style="stroke:#181818;stroke-width:.5" x1="219" x2="280" y1="820" y2="820"/><line style="stroke:#181818;stroke-width:.5" x1="219" x2="280" y1="828" y2="828"/></g><g id="elem_Variable"><rect id="Variable" width="87" height="48" x="144" y="915" fill="#F1F1F1" codeLine="10" rx="2.5" ry="2.5" style="stroke:#181818;stroke-width:.5"/><ellipse cx="159" cy="931" fill="#ADD1B2" rx="11" ry="11" style="stroke:#181818;stroke-width:1"/><path fill="#000" d="M158.4688,937.9219 Q156.7188,937.9219 155.5781,937.1875 Q154.4531,936.4375 153.8906,935.0938 Q153.3438,933.7344 153.3438,931.9375 Q153.3438,929.9063 154,928.4531 Q154.6563,927 155.9375,926.2188 Q157.2188,925.4375 159.0938,925.4375 Q159.9844,925.4375 160.6563,925.625 Q161.3281,925.7969 162.0156,926.1406 L161.2031,928.1563 Q160.5781,927.8438 160.0313,927.7188 Q159.5,927.5938 159.0156,927.5938 Q157.8438,927.5938 157.1406,928.125 Q156.4375,928.6563 156.1406,929.6094 Q155.8438,930.5625 155.8438,931.8281 Q155.8438,933.8438 156.5625,934.8125 Q157.2813,935.7656 158.875,935.7656 Q159.4688,935.7656 160.0938,935.6094 Q160.7188,935.4531 161.5469,935.0781 L161.5469,937.2969 Q160.8125,937.6094 160.0156,937.7656 Q159.2344,937.9219 158.4688,937.9219 Z"/><text x="173" y="936.432" fill="#000" font-family="sans-serif" font-size="14" lengthAdjust="spacing" textLength="55">Variable</text><line style="stroke:#181818;stroke-width:.5" x1="145" x2="230" y1="947" y2="947"/><line style="stroke:#181818;stroke-width:.5" x1="145" x2="230" y1="955" y2="955"/></g><g id="elem_Constant"><rect id="Constant" width="92" height="48" x="266.5" y="915" fill="#F1F1F1" codeLine="11" rx="2.5" ry="2.5" style="stroke:#181818;stroke-width:.5"/><ellipse cx="281.5" cy="931" fill="#ADD1B2" rx="11" ry="11" style="stroke:#181818;stroke-width:1"/><path fill="#000" d="M280.9688,937.9219 Q279.2188,937.9219 278.0781,937.1875 Q276.9531,936.4375 276.3906,935.0938 Q275.8438,933.7344 275.8438,931.9375 Q275.8438,929.9063 276.5,928.4531 Q277.1563,927 278.4375,926.2188 Q279.7188,925.4375 281.5938,925.4375 Q282.4844,925.4375 283.1563,925.625 Q283.8281,925.7969 284.5156,926.1406 L283.7031,928.1563 Q283.0781,927.8438 282.5313,927.7188 Q282,927.5938 281.5156,927.5938 Q280.3438,927.5938 279.6406,928.125 Q278.9375,928.6563 278.6406,929.6094 Q278.3438,930.5625 278.3438,931.8281 Q278.3438,933.8438 279.0625,934.8125 Q279.7813,935.7656 281.375,935.7656 Q281.9688,935.7656 282.5938,935.6094 Q283.2188,935.4531 284.0469,935.0781 L284.0469,937.2969 Q283.3125,937.6094 282.5156,937.7656 Q281.7344,937.9219 280.9688,937.9219 Z"/><text x="295.5" y="936.432" fill="#000" font-family="sans-serif" font-size="14" lengthAdjust="spacing" textLength="60">Constant</text><line style="stroke:#181818;stroke-width:.5" x1="267.5" x2="357.5" y1="947" y2="947"/><line style="stroke:#181818;stroke-width:.5" x1="267.5" x2="357.5" y1="955" y2="955"/></g><g id="elem_Clasificador"><rect id="Clasificador" width="111" height="48" x="429" y="915" fill="#F1F1F1" rx="2.5" ry="2.5" style="stroke:#181818;stroke-width:.5"/><ellipse cx="444" cy="931" fill="#ADD1B2" rx="11" ry="11" style="stroke:#181818;stroke-width:1"/><path fill="#000" d="M443.4688,937.9219 Q441.7188,937.9219 440.5781,937.1875 Q439.4531,936.4375 438.8906,935.0938 Q438.3438,933.7344 438.3438,931.9375 Q438.3438,929.9063 439,928.4531 Q439.6563,927 440.9375,926.2188 Q442.2188,925.4375 444.0938,925.4375 Q444.9844,925.4375 445.6563,925.625 Q446.3281,925.7969 447.0156,926.1406 L446.2031,928.1563 Q445.5781,927.8438 445.0313,927.7188 Q444.5,927.5938 444.0156,927.5938 Q442.8438,927.5938 442.1406,928.125 Q441.4375,928.6563 441.1406,929.6094 Q440.8438,930.5625 440.8438,931.8281 Q440.8438,933.8438 441.5625,934.8125 Q442.2813,935.7656 443.875,935.7656 Q444.4688,935.7656 445.0938,935.6094 Q445.7188,935.4531 446.5469,935.0781 L446.5469,937.2969 Q445.8125,937.6094 445.0156,937.7656 Q444.2344,937.9219 443.4688,937.9219 Z"/><text x="458" y="936.432" fill="#000" font-family="sans-serif" font-size="14" lengthAdjust="spacing" textLength="79">Clasificador</text><line style="stroke:#181818;stroke-width:.5" x1="430" x2="539" y1="947" y2="947"/><line style="stroke:#181818;stroke-width:.5" x1="430" x2="539" y1="955" y2="955"/></g><g id="elem_PrimitiveType"><rect id="PrimitiveType" width="123" height="48" x="423" y="1024" fill="#F1F1F1" rx="2.5" ry="2.5" style="stroke:#181818;stroke-width:.5"/><ellipse cx="438" cy="1040" fill="#ADD1B2" rx="11" ry="11" style="stroke:#181818;stroke-width:1"/><path fill="#000" d="M437.4688,1046.9219 Q435.7188,1046.9219 434.5781,1046.1875 Q433.4531,1045.4375 432.8906,1044.0938 Q432.3438,1042.7344 432.3438,1040.9375 Q432.3438,1038.9063 433,1037.4531 Q433.6563,1036 434.9375,1035.2188 Q436.2188,1034.4375 438.0938,1034.4375 Q438.9844,1034.4375 439.6563,1034.625 Q440.3281,1034.7969 441.0156,1035.1406 L440.2031,1037.1563 Q439.5781,1036.8438 439.0313,1036.7188 Q438.5,1036.5938 438.0156,1036.5938 Q436.8438,1036.5938 436.1406,1037.125 Q435.4375,1037.6563 435.1406,1038.6094 Q434.8438,1039.5625 434.8438,1040.8281 Q434.8438,1042.8438 435.5625,1043.8125 Q436.2813,1044.7656 437.875,1044.7656 Q438.4688,1044.7656 439.0938,1044.6094 Q439.7188,1044.4531 440.5469,1044.0781 L440.5469,1046.2969 Q439.8125,1046.6094 439.0156,1046.7656 Q438.2344,1046.9219 437.4688,1046.9219 Z"/><text x="452" y="1045.432" fill="#000" font-family="sans-serif" font-size="14" lengthAdjust="spacing" textLength="91">PrimitiveType</text><line style="stroke:#181818;stroke-width:.5" x1="424" x2="545" y1="1056" y2="1056"/><line style="stroke:#181818;stroke-width:.5" x1="424" x2="545" y1="1064" y2="1064"/></g><g id="link_Program_Package"><path id="Program-Package" fill="none" d="M441.5,67.22 C441.5,67.22 441.5,91.5 441.5,102.56" codeLine="13" style="stroke:#181818;stroke-width:1"/><polygon fill="#181818" points="441.5 115.83 445.5 106.83 441.5 110.83 437.5 106.83 441.5 115.83" style="stroke:#181818;stroke-width:1"/><line style="stroke:#181818;stroke-width:1" x1="441.5" x2="441.5" y1="110.83" y2="102.83"/><polygon fill="#181818" points="441.5 55.22 437.5 61.22 441.5 67.22 445.5 61.22 441.5 55.22" style="stroke:#181818;stroke-width:1"/><text x="433.559" y="104.042" fill="#000" font-family="sans-serif" font-size="13" lengthAdjust="spacing" textLength="7">+</text></g><g id="link_Package_Package"><path id="Package-Package" fill="none" d="M497.089,130.1582 C497.089,130.1582 520,134.38 520,140 C520,145.62 510.94,148.9 498.48,149.84" codeLine="14" style="stroke:#181818;stroke-width:1"/><polygon fill="#181818" points="485.09 150 494.142 153.881 490.09 149.934 494.036 145.882 485.09 150" style="stroke:#181818;stroke-width:1"/><line style="stroke:#181818;stroke-width:1" x1="490.09" x2="498.09" y1="149.934" y2="149.84"/><polygon fill="#181818" points="485.09 130 491.037 134.079 497.089 130.158 491.142 126.079 485.09 130" style="stroke:#181818;stroke-width:1"/><text x="492.889" y="147.204" fill="#000" font-family="sans-serif" font-size="13" lengthAdjust="spacing" textLength="7">*</text></g><g id="link_Package_Class"><path id="Package-Class" fill="none" d="M441.5,176.22 C441.5,176.22 441.5,200.5 441.5,211.56" codeLine="15" style="stroke:#181818;stroke-width:1"/><polygon fill="#181818" points="441.5 224.83 445.5 215.83 441.5 219.83 437.5 215.83 441.5 224.83" style="stroke:#181818;stroke-width:1"/><line style="stroke:#181818;stroke-width:1" x1="441.5" x2="441.5" y1="219.83" y2="211.83"/><polygon fill="#181818" points="441.5 164.22 437.5 170.22 441.5 176.22 445.5 170.22 441.5 164.22" style="stroke:#181818;stroke-width:1"/><text x="433.559" y="213.042" fill="#000" font-family="sans-serif" font-size="13" lengthAdjust="spacing" textLength="7">*</text></g><g id="link_Class_Class"><path id="Class-Class" fill="none" d="M487.3265,239 C487.3265,239 510,242.91 510,249 C510,255.09 500.7,258.43 488.4,259.03" codeLine="16" style="stroke:#181818;stroke-width:1"/><polygon fill="#181818" points="475.33 258.71 484.231 262.926 480.329 258.831 484.424 254.929 475.33 258.71" style="stroke:#181818;stroke-width:1"/><line style="stroke:#181818;stroke-width:1" x1="480.329" x2="488.33" y1="258.831" y2="259.03"/><polygon fill="#181818" points="475.33 239.29 481.425 243.144 487.327 239 481.232 235.146 475.33 239.29" style="stroke:#181818;stroke-width:1"/><text x="483.029" y="255.929" fill="#000" font-family="sans-serif" font-size="13" lengthAdjust="spacing" textLength="7">*</text></g><g id="link_Class_Data"><path id="Class-Data" fill="none" d="M441.5,285.38 C441.5,285.38 441.5,333.49 441.5,357 C441.5,357 441.5,357 441.5,704 C441.5,771.12 350.85,796.52 294.13,805.84" codeLine="17" style="stroke:#181818;stroke-width:1"/><polygon fill="#181818" points="281.2 807.79 290.697 810.4 286.144 807.043 289.501 802.49 281.2 807.79" style="stroke:#181818;stroke-width:1"/><line style="stroke:#181818;stroke-width:1" x1="286.144" x2="294.06" y1="807.043" y2="805.85"/><polygon fill="#181818" points="441.5 273.38 437.5 279.38 441.5 285.38 445.5 279.38 441.5 273.38" style="stroke:#181818;stroke-width:1"/><text x="442.5" y="535.897" fill="#000" font-family="sans-serif" font-size="13" lengthAdjust="spacing" textLength="53">atributte</text><text x="288.9" y="801.984" fill="#000" font-family="sans-serif" font-size="13" lengthAdjust="spacing" textLength="7">*</text></g><g id="link_Class_Method"><path id="Class-Method" fill="none" d="M397.7515,280.0038 C397.7515,280.0038 351.01,312.07 330.12,326.39" codeLine="18" style="stroke:#181818;stroke-width:1"/><polygon fill="#181818" points="319.28 333.83 328.965 332.039 323.404 331.002 324.44 325.441 319.28 333.83" style="stroke:#181818;stroke-width:1"/><line style="stroke:#181818;stroke-width:1" x1="323.404" x2="330.005" y1="331.002" y2="326.475"/><polygon fill="#181818" points="407.65 273.22 400.44 273.312 397.752 280.004 404.962 279.911 407.65 273.22" style="stroke:#181818;stroke-width:1"/><text x="320.418" y="322.042" fill="#000" font-family="sans-serif" font-size="13" lengthAdjust="spacing" textLength="7">+</text></g><g id="link_Method_Sentence"><path id="Method-Sentence" fill="none" d="M236.4663,388.3339 C236.4663,388.3339 210.34,404.4 198.5,412 C186.97,419.4 174.65,427.58 163.21,435.28" codeLine="19" style="stroke:#181818;stroke-width:1"/><polygon fill="#181818" points="152.13 442.79 161.825 441.055 156.27 439.986 157.339 434.431 152.13 442.79" style="stroke:#181818;stroke-width:1"/><line style="stroke:#181818;stroke-width:1" x1="156.27" x2="162.9" y1="439.986" y2="435.495"/><polygon fill="#181818" points="246.72 382.1 239.515 381.799 236.466 388.334 243.671 388.635 246.72 382.1" style="stroke:#181818;stroke-width:1"/><text x="153.227" y="430.991" fill="#000" font-family="sans-serif" font-size="13" lengthAdjust="spacing" textLength="7">+</text></g><g id="link_Method_Data"><path id="Method-Data" fill="none" d="M255.2567,391.6907 C255.2567,391.6907 224.5,438.94 224.5,466 C224.5,466 224.5,466 224.5,704 C224.5,728.26 230.67,754.81 236.88,775.4" codeLine="20" style="stroke:#181818;stroke-width:1"/><polygon fill="#181818" points="240.9 787.98 241.968 778.189 239.377 783.218 234.348 780.626 240.9 787.98" style="stroke:#181818;stroke-width:1"/><line style="stroke:#181818;stroke-width:1" x1="239.377" x2="236.94" y1="783.218" y2="775.605"/><polygon fill="#181818" points="262.79 382.35 255.91 384.509 255.257 391.691 262.137 389.531 262.79 382.35" style="stroke:#181818;stroke-width:1"/><text x="225.5" y="599.397" fill="#000" font-family="sans-serif" font-size="13" lengthAdjust="spacing" textLength="63">parameter</text><text x="230.648" y="776.232" fill="#000" font-family="sans-serif" font-size="13" lengthAdjust="spacing" textLength="7">*</text></g><g id="link_Method_Data"><path id="Method-Data-1" fill="none" d="M322.3721,390.7084 C322.3721,390.7084 359.5,437.4 359.5,466 C359.5,466 359.5,466 359.5,704 C359.5,743.1 323.35,772.53 292.5,790.53" codeLine="21" style="stroke:#181818;stroke-width:1"/><polygon fill="#181818" points="281.02 796.87 290.832 796.022 285.397 794.453 286.966 789.018 281.02 796.87" style="stroke:#181818;stroke-width:1"/><line style="stroke:#181818;stroke-width:1" x1="285.397" x2="292.4" y1="794.453" y2="790.585"/><polygon fill="#181818" points="313.9 382.21 315.303 389.283 322.372 390.708 320.969 383.635 313.9 382.21" style="stroke:#181818;stroke-width:1"/><text x="360.5" y="599.397" fill="#000" font-family="sans-serif" font-size="13" lengthAdjust="spacing" textLength="27">local</text><text x="289.118" y="788.384" fill="#000" font-family="sans-serif" font-size="13" lengthAdjust="spacing" textLength="7">*</text></g><g id="link_Sentence_Expression"><path id="Sentence-Expression" fill="none" d="M113.7316,503.1117 C113.7316,503.1117 108.66,540.35 106.41,556.87" codeLine="22" style="stroke:#181818;stroke-width:1"/><polygon fill="#181818" points="104.64 569.91 109.819 561.533 105.316 564.956 101.893 560.452 104.64 569.91" style="stroke:#181818;stroke-width:1"/><line style="stroke:#181818;stroke-width:1" x1="105.316" x2="106.39" y1="564.956" y2="557.025"/><polygon fill="#181818" points="115.34 491.22 110.572 496.63 113.732 503.112 118.5 497.702 115.34 491.22" style="stroke:#181818;stroke-width:1"/><text x="97.543" y="558.143" fill="#000" font-family="sans-serif" font-size="13" lengthAdjust="spacing" textLength="7">+</text></g><g id="link_Expression_Operator"><path id="Expression-Operator" fill="none" d="M86.177,629.1727 C86.177,629.1727 74.55,655.08 69.3,666.78" codeLine="23" style="stroke:#181818;stroke-width:1"/><polygon fill="#181818" points="63.89 678.83 71.225 672.257 65.938 674.268 63.926 668.981 63.89 678.83" style="stroke:#181818;stroke-width:1"/><line style="stroke:#181818;stroke-width:1" x1="65.938" x2="69.215" y1="674.268" y2="666.965"/><polygon fill="#181818" points="91.08 618.22 84.978 622.062 86.177 629.173 92.279 625.331 91.08 618.22" style="stroke:#181818;stroke-width:1"/><text x="58.742" y="667.042" fill="#000" font-family="sans-serif" font-size="13" lengthAdjust="spacing" textLength="7">*</text></g><g id="link_Expression_Data"><path id="Expression-Data" fill="none" d="M118.6803,628.8293 C118.6803,628.8293 166.84,716.49 198.5,758 C203.68,764.8 209.64,771.66 215.62,778.1" codeLine="24" style="stroke:#181818;stroke-width:1"/><polygon fill="#181818" points="224.91 787.78 221.561 778.518 221.447 784.174 215.791 784.059 224.91 787.78" style="stroke:#181818;stroke-width:1"/><line style="stroke:#181818;stroke-width:1" x1="221.447" x2="215.91" y1="784.174" y2="778.4"/><polygon fill="#181818" points="113.13 618.19 112.359 625.36 118.68 628.829 119.452 621.659 113.13 618.19" style="stroke:#181818;stroke-width:1"/><text x="210.712" y="776.383" fill="#000" font-family="sans-serif" font-size="13" lengthAdjust="spacing" textLength="7">+</text></g><g id="link_Data_Variable"><path id="Data-backto-Variable" fill="none" d="M229.06,854.21 C219.05,874.39 207.38,897.92 198.95,914.91" codeLine="25" style="stroke:#181818;stroke-width:1"/><polygon fill="none" points="222.83 851.03 237.98 836.22 235.37 857.25 222.83 851.03" style="stroke:#181818;stroke-width:1"/></g><g id="link_Data_Constant"><path id="Data-backto-Constant" fill="none" d="M270.27,854.21 C280.44,874.39 292.3,897.92 300.86,914.91" codeLine="26" style="stroke:#181818;stroke-width:1"/><polygon fill="none" points="263.95 857.23 261.2 836.22 276.45 850.93 263.95 857.23" style="stroke:#181818;stroke-width:1"/></g><g id="link_Operator_Data"><path id="Operator-to-Data" fill="none" d="M82.02,727.09 C95.37,737.3 111.77,748.99 127.5,758 C155.02,773.76 188.13,787.87 212.91,797.56" codeLine="27" style="stroke:#181818;stroke-width:1;stroke-dasharray:7,7"/><polygon fill="#181818" points="217.75 799.43 210.809 792.443 213.089 797.62 207.912 799.9 217.75 799.43" style="stroke:#181818;stroke-width:1"/></g><g id="link_Data_Clasificador"><path id="Data-to-Clasificador" fill="none" d="M281.19,829.86 C321.12,851.1 390.12,887.8 436.53,912.48" codeLine="28" style="stroke:#181818;stroke-width:1"/><polygon fill="#181818" points="440.95 914.83 434.875 907.077 436.534 912.486 431.125 914.144 440.95 914.83" style="stroke:#181818;stroke-width:1"/><text x="381.5" y="880.897" fill="#000" font-family="sans-serif" font-size="13" lengthAdjust="spacing" textLength="47">estático</text></g><g id="link_Clasificador_Class"><path id="Clasificador-backto-Class" fill="none" d="M502.55,895.6 C511.12,871.78 519.5,841.24 519.5,813 C519.5,357 519.5,357 519.5,357 C519.5,323.21 493.78,292.94 471.88,273.3" codeLine="29" style="stroke:#181818;stroke-width:1"/><polygon fill="none" points="508.95 898.47 495.19 914.58 495.9 893.41 508.95 898.47" style="stroke:#181818;stroke-width:1"/></g><g id="link_Clasificador_PrimitiveType"><path id="Clasificador-backto-PrimitiveType" fill="none" d="M484.5,983.58 C484.5,997.36 484.5,1012.06 484.5,1023.83" codeLine="30" style="stroke:#181818;stroke-width:1"/><polygon fill="none" points="477.5 983.22 484.5 963.22 491.5 983.22 477.5 983.22" style="stroke:#181818;stroke-width:1"/></g></g></svg>